#define 0898b8f9e53440719f935f17cda7fa58AhN2q5XNqaHabsoE_width 48
#define 0898b8f9e53440719f935f17cda7fa58AhN2q5XNqaHabsoE_height 48
static char 0898b8f9e53440719f935f17cda7fa58AhN2q5XNqaHabsoE_bits[] = {
  0x00, 0x00, 0x00, 0x00, 0x00, 0x00, 0x00, 0x00, 0x00, 0x00, 0x07, 0x00, 
  0x00, 0x00, 0x00, 0xE0, 0x07, 0x00, 0x00, 0x00, 0x00, 0xE0, 0x07, 0x00, 
  0x00, 0x00, 0x00, 0xF0, 0x01, 0x00, 0x00, 0x00, 0x00, 0xFC, 0x07, 0x00, 
  0x00, 0x00, 0x00, 0xFC, 0x07, 0x00, 0x00, 0x00, 0x00, 0x9C, 0x0F, 0x00, 
  0x00, 0x00, 0x00, 0x1E, 0x3F, 0x00, 0x00, 0x00, 0x00, 0x0E, 0x3E, 0x00, 
  0x00, 0x00, 0x00, 0x0F, 0x7C, 0x00, 0x00, 0x00, 0x80, 0x07, 0xF8, 0x01, 
  0x00, 0x00, 0x00, 0x0F, 0xF0, 0x01, 0x00, 0x00, 0x80, 0x1F, 0xE0, 0x63, 
  0x00, 0x00, 0x80, 0x3F, 0xC0, 0x7F, 0x00, 0x00, 0x80, 0x7F, 0x80, 0x7F, 
  0x00, 0x00, 0x80, 0xFB, 0x00, 0x7F, 0x00, 0x00, 0x80, 0xE3, 0x01, 0x7E, 
  0x00, 0x00, 0x80, 0xE3, 0x03, 0x3E, 0x00, 0x00, 0x80, 0xC3, 0x07, 0x1E, 
  0x00, 0x00, 0x80, 0x03, 0xCF, 0x0F, 0x00, 0x00, 0xF8, 0x03, 0xFF, 0x07, 
  0x00, 0xC0, 0xFF, 0xFF, 0xFF, 0x03, 0x00, 0xFE, 0xFF, 0xFF, 0x7F, 0x00, 
  0x00, 0xFF, 0xEF, 0xFF, 0x0F, 0x00, 0x80, 0xFF, 0x01, 0x67, 0x00, 0x00, 
  0xE0, 0xC7, 0x87, 0x07, 0x00, 0x00, 0xF0, 0xC1, 0x8F, 0x03, 0x00, 0x00, 
  0xF8, 0x80, 0x0F, 0x07, 0x00, 0x00, 0xFC, 0x00, 0xBE, 0x03, 0x00, 0x00, 
  0xFE, 0x01, 0xFC, 0x07, 0x00, 0x00, 0xFE, 0x03, 0xFC, 0x03, 0x00, 0x00, 
  0x86, 0x07, 0xF0, 0x03, 0x00, 0x00, 0x00, 0x0F, 0xF0, 0x03, 0x00, 0x00, 
  0x00, 0x1F, 0xE0, 0x03, 0x00, 0x00, 0x00, 0x3C, 0x80, 0x03, 0x00, 0x00, 
  0x00, 0x78, 0xC0, 0x03, 0x00, 0x00, 0x00, 0xF8, 0xC0, 0x01, 0x00, 0x00, 
  0x00, 0xE0, 0xE1, 0x01, 0x00, 0x00, 0x00, 0xC0, 0xF3, 0x00, 0x00, 0x00, 
  0x00, 0xC0, 0xF7, 0x00, 0x00, 0x00, 0x00, 0x00, 0x7F, 0x00, 0x00, 0x00, 
  0x00, 0x00, 0x7E, 0x00, 0x00, 0x00, 0x00, 0x00, 0x3E, 0x00, 0x00, 0x00, 
  0x00, 0x00, 0x0F, 0x00, 0x00, 0x00, 0x00, 0x80, 0x0F, 0x00, 0x00, 0x00, 
  0x00, 0x80, 0x0F, 0x00, 0x00, 0x00, 0x00, 0x00, 0x00, 0x00, 0x00, 0x00, 
  };
